<?xml version="1.0" encoding="UTF-8"?>
<svg width="837px" height="387px" viewBox="0 0 837 387" version="1.1" xmlns="http://www.w3.org/2000/svg" xmlns:xlink="http://www.w3.org/1999/xlink">
    <title>6296A8EB-338B-4F77-AB5E-3BC45A9E238B@1x</title>
    <defs>
        <polygon id="path-1" points="0.000544827586 0.36316092 221.787506 0.36316092 221.787506 196.857046 0.000544827586 196.857046"></polygon>
        <polygon id="path-3" points="0.746597701 0.0387758621 222.559529 0.0387758621 222.559529 196.770115 0.746597701 196.770115"></polygon>
        <polygon id="path-5" points="0 386.638201 836.546437 386.638201 836.546437 0.541591954 0 0.541591954"></polygon>
    </defs>
    <g id="Illustrations" stroke="none" stroke-width="1" fill="none" fill-rule="evenodd">
        <g id="TAXADMINISTRATION-Logo">
            <g id="Group-3" transform="translate(0.000000, 0.178431)">
                <mask id="mask-2" fill="white">
                    <use xlink:href="#path-1"></use>
                </mask>
                <g id="Clip-2"></g>
                <path d="M128.744575,0.43308046 L128.744575,0.43762069 C128.676471,0.43762069 128.626529,0.43308046 128.558425,0.43308046 C57.7671609,0.43308046 0.369574713,86.1798621 0.000544827586,192.162448 C-0.00272413793,192.321356 0.00635632184,192.153368 0.00635632184,192.312276 C0.00635632184,195.35423 1.59543678,196.857046 3.634,196.857046 C5.59537931,196.857046 7.16629885,195.830954 7.29342529,192.938828 L7.30250575,192.938828 L7.30250575,192.761759 C7.30250575,192.707276 7.33428736,192.657333 7.33428736,192.602851 C7.33428736,192.557448 7.32066667,192.530207 7.32066667,192.480264 C7.57037931,107.559805 53.5492874,36.1102069 110.261299,36.1102069 C116.572218,36.1102069 122.737851,37.0182529 128.744575,38.6391149 L128.744575,71.0745172 C128.744575,71.0745172 177.878943,56.7410115 221.787506,60.6637701 C180.752908,-4.1797931 128.744575,0.43308046 128.744575,0.43308046" id="Fill-1" fill="#E32313" mask="url(#mask-2)"></path>
            </g>
            <g id="Group-6" transform="translate(34.781609, 189.868086)">
                <mask id="mask-4" fill="white">
                    <use xlink:href="#path-3"></use>
                </mask>
                <g id="Clip-5"></g>
                <path d="M222.559529,4.28843103 C222.559529,4.26118966 222.545908,4.23394828 222.545908,4.20216667 L222.545908,4.19308621 C222.505046,1.18291379 220.875103,0.0387758621 218.859241,0.0387758621 C216.825218,0.0387758621 215.168034,1.23285632 215.168034,4.28843103 C215.168034,4.4200977 215.217977,4.53360345 215.217977,4.66072989 C214.977345,89.5766494 168.980276,161.017167 112.268264,161.017167 C105.952805,161.017167 99.7871724,160.118201 93.7895287,158.497339 L93.7895287,126.066477 C93.7895287,126.066477 44.6506207,140.399983 0.746597701,136.468144 C41.7811954,201.311707 93.7895287,196.698833 93.7895287,196.698833 L93.7895287,196.689753 C93.853092,196.689753 93.9121149,196.698833 93.9756782,196.698833 C164.884989,196.698833 222.387,110.647856 222.545908,4.41101724 C222.545908,4.36561494 222.559529,4.33383333 222.559529,4.28843103" id="Fill-4" fill="#13654C" mask="url(#mask-4)"></path>
            </g>
            <path d="M132.681862,122.820879 C132.681862,124.487144 130.883931,125.835592 128.672839,125.835592 C126.452667,125.835592 124.659276,124.487144 124.659276,122.820879 C124.659276,121.163695 126.452667,119.810707 128.672839,119.810707 C130.883931,119.810707 132.681862,121.163695 132.681862,122.820879" id="Fill-7" fill="#B3A06E"></path>
            <mask id="mask-6" fill="white">
                <use xlink:href="#path-5"></use>
            </mask>
            <g id="Clip-10"></g>
            <path d="M160.383621,159.699351 L165.273448,159.699351 L165.273448,152.689236 L160.383621,152.689236 L160.383621,159.699351 Z M157.01023,157.247626 C157.01023,158.714121 155.702644,159.921822 154.081782,159.921822 C152.456379,159.921822 151.139713,158.714121 151.139713,157.247626 L151.139713,155.14096 C151.139713,153.683546 152.456379,152.475845 154.081782,152.475845 C155.702644,152.475845 157.01023,153.683546 157.01023,155.14096 L157.01023,157.247626 Z M141.114885,159.699351 L147.911609,159.699351 L147.911609,152.689236 L141.114885,152.689236 L141.114885,159.699351 Z M133.423736,159.622167 C132.179713,160.157914 130.517989,160.512052 128.679195,160.512052 C126.831322,160.512052 125.165057,160.194236 123.921034,159.672109 C122.704253,159.145443 121.800747,158.428086 121.768966,157.438316 C121.814368,154.913948 124.81092,151.690385 128.679195,151.644983 C132.538391,151.690385 135.530402,154.913948 135.589425,157.438316 C135.544023,158.391764 134.640517,159.09096 133.423736,159.622167 L133.423736,159.622167 Z M109.346897,159.699351 L116.13908,159.699351 L116.13908,152.689236 L109.346897,152.689236 L109.346897,159.699351 Z M106.105172,157.247626 C106.105172,158.714121 104.806667,159.921822 103.190345,159.921822 C101.546782,159.921822 100.243736,158.714121 100.243736,157.247626 L100.243736,155.14096 C100.243736,153.683546 101.546782,152.475845 103.190345,152.475845 C104.806667,152.475845 106.105172,153.683546 106.105172,155.14096 L106.105172,157.247626 Z M91.975977,159.699351 L96.8612644,159.699351 L96.8612644,152.689236 L91.975977,152.689236 L91.975977,159.699351 Z M88.756954,162.895672 L168.583276,162.895672 L168.583276,149.506534 L88.756954,149.506534 L88.756954,162.895672 Z M100.629655,128.458029 L100.647816,128.430787 C104.634138,123.822454 109.796379,120.19481 115.721379,118.029121 L115.989253,118.029121 L115.989253,121.97458 C110.536437,123.53642 105.596667,126.047167 101.487759,129.297971 L101.465057,129.293431 C101.374253,129.397856 101.233506,129.46596 101.070057,129.46596 C100.72954,129.46596 100.461667,129.193546 100.461667,128.857569 C100.461667,128.707741 100.52977,128.562454 100.629655,128.458029 L100.629655,128.458029 Z M138.086552,118.029121 L138.118333,131.681592 C135.811897,129.007397 132.479368,127.282109 128.679195,127.273029 C124.865402,127.282109 121.541954,129.007397 119.226437,131.681592 L119.185575,118.029121 L138.086552,118.029121 Z M141.296494,118.029121 L141.623391,118.029121 C147.548391,120.19481 152.701552,123.822454 156.692414,128.421707 L156.674253,128.430787 C156.801379,128.539753 156.855862,128.68958 156.855862,128.857569 C156.855862,129.193546 156.597069,129.46596 156.265632,129.46596 C156.093103,129.46596 155.934195,129.388776 155.82977,129.27981 C151.711782,126.029006 146.767471,123.513718 141.296494,121.951879 L141.296494,118.029121 Z M93.5332759,139.372741 C92.9612069,139.113948 92.5707471,138.5555 92.5707471,137.888086 C92.5707471,136.98458 93.2971839,136.244523 94.2143103,136.244523 C95.1041954,136.244523 95.8442529,136.98458 95.8442529,137.888086 C95.8442529,138.55096 95.4492529,139.113948 94.8817241,139.372741 L97.5967816,146.237569 L98.4321839,146.237569 L98.4321839,140.371592 C98.4321839,138.242224 99.9077586,136.466994 101.864598,135.944868 C101.260747,135.536247 100.847586,134.877914 100.847586,134.092454 C100.847586,132.83027 101.864598,131.817799 103.113161,131.817799 C104.375345,131.817799 105.396897,132.83027 105.396897,134.092454 C105.396897,134.905155 104.951954,135.572569 104.325402,135.976649 C106.236839,136.535098 107.64431,138.283086 107.64431,140.371592 L107.64431,146.237569 L108.438851,146.237569 L113.060805,134.546477 C112.130057,134.260443 111.430862,133.42504 111.430862,132.389868 C111.430862,131.136764 112.447874,130.119753 113.705517,130.119753 C114.976782,130.119753 115.989253,131.136764 115.989253,132.389868 C115.989253,133.42504 115.285517,134.260443 114.35477,134.546477 L118.985805,146.237569 L119.226437,146.237569 L119.226437,140.199063 C119.226437,134.832511 123.462471,130.487511 128.679195,130.487511 C133.891379,130.487511 138.118333,134.832511 138.118333,140.199063 L138.118333,146.237569 L138.358966,146.237569 L142.98546,134.546477 C142.050172,134.260443 141.360057,133.4205 141.360057,132.389868 C141.360057,131.136764 142.377069,130.119753 143.634713,130.119753 C144.887816,130.119753 145.900287,131.136764 145.900287,132.389868 C145.900287,133.42504 145.223793,134.260443 144.279425,134.546477 L148.901379,146.237569 L149.705,146.237569 L149.705,140.371592 C149.705,138.283086 151.112471,136.535098 153.032989,135.976649 C152.392816,135.572569 151.947874,134.905155 151.947874,134.092454 C151.947874,132.83027 152.978506,131.817799 154.24069,131.817799 C155.493793,131.817799 156.506264,132.83027 156.506264,134.092454 C156.506264,134.877914 156.093103,135.536247 155.489253,135.944868 C157.459713,136.466994 158.921667,138.242224 158.921667,140.371592 L158.921667,146.237569 L159.738908,146.237569 L162.453966,139.372741 C161.890977,139.113948 161.505057,138.55096 161.505057,137.888086 C161.505057,136.98458 162.231494,136.244523 163.13954,136.244523 C164.038506,136.244523 164.764943,136.98458 164.764943,137.888086 C164.764943,138.55096 164.369943,139.113948 163.820575,139.372741 L166.540172,146.237569 L168.256379,146.237569 L167.915862,144.339753 C165.400575,130.709983 155.530115,119.577339 142.440632,114.909983 L142.172759,114.814638 L131.630345,114.814638 C132.107069,114.174466 132.374943,113.402626 132.374943,112.621707 C132.374943,111.89073 132.166092,111.155213 131.716609,110.524121 C131.003793,109.484408 129.841494,108.93958 128.683736,108.93958 C128.479425,108.93958 128.252414,108.957741 128.066264,108.989523 L125.174138,104.826132 L127.39431,103.291534 C127.662184,103.386879 127.943678,103.432282 128.225172,103.432282 C128.733678,103.432282 129.237644,103.282454 129.696207,102.978259 C130.431724,102.469753 130.804023,101.657052 130.804023,100.83073 C130.804023,100.322224 130.663276,99.8046379 130.35454,99.3506149 C129.841494,98.6196379 129.028793,98.2337184 128.207011,98.2337184 C127.703046,98.2337184 127.176379,98.3880862 126.735977,98.6968218 C126.018621,99.1826264 125.646322,99.9499253 125.61908,100.735385 L123.417069,102.260902 L121.183276,99.0282586 C121.26046,98.7513046 121.305862,98.4743506 121.305862,98.1883161 C121.305862,97.6888908 121.156034,97.1667644 120.851839,96.7263621 C120.356954,95.9953851 119.535172,95.6094655 118.69977,95.6094655 C118.213966,95.6094655 117.678218,95.7592931 117.228736,96.0589483 C116.493218,96.5719943 116.107299,97.3846954 116.107299,98.2110172 C116.107299,98.7104425 116.261667,99.2371092 116.565862,99.6911322 C117.051667,100.385787 117.823506,100.771707 118.618046,100.794408 L120.851839,104.036132 L118.627126,105.56619 C118.354713,105.470845 118.086839,105.429983 117.787184,105.429983 C117.287759,105.429983 116.770172,105.57981 116.33431,105.884006 C115.607874,106.387971 115.212874,107.196132 115.212874,108.022454 C115.212874,108.53096 115.358161,109.053086 115.675977,109.507109 C116.170862,110.229006 117.001724,110.624006 117.809885,110.624006 C118.322931,110.624006 118.840517,110.474178 119.28546,110.160902 C119.989195,109.679638 120.379655,108.907799 120.397816,108.122339 L122.608908,106.592282 L125.501034,110.760213 C125.151437,111.336822 124.974368,111.981534 124.974368,112.639868 C124.974368,113.361764 125.187759,114.097282 125.628161,114.728374 C125.646322,114.760155 125.691724,114.787397 125.705345,114.814638 L115.167471,114.814638 L114.904138,114.909983 C101.810115,119.577339 91.9487356,130.709983 89.4334483,144.339753 L89.092931,146.237569 L90.8136782,146.237569 L93.5332759,139.372741 Z" id="Fill-9" fill="#B3A06E" mask="url(#mask-6)"></path>
            <polygon id="Fill-11" fill="#E32313" mask="url(#mask-6)" points="85.0203448 184.457224 127.062874 184.457224 127.062874 169.392741 85.0203448 169.392741"></polygon>
            <path d="M127.064236,250.652414 L87.0648103,250.652414 C88.7991782,255.396954 92.0000402,260.795287 97.7888333,265.707816 L127.064236,265.707816 L127.064236,250.652414 Z" id="Fill-12" fill="#E32313" mask="url(#mask-6)"></path>
            <polygon id="Fill-13" fill="#E32313" mask="url(#mask-6)" points="85.0203448 211.480672 127.062874 211.480672 127.062874 196.42527 85.0203448 196.42527"></polygon>
            <path d="M85.0207989,238.05146 C85.0207989,238.05146 85.0071782,238.273931 84.9935575,238.600828 L127.063328,238.600828 L127.063328,223.545425 L85.0207989,223.545425 L85.0207989,237.956115 L85.0207989,238.05146 Z" id="Fill-14" fill="#E32313" mask="url(#mask-6)"></path>
            <path d="M170.417983,250.297822 C170.545109,249.934603 170.658615,249.589546 170.772121,249.235408 C170.658615,249.589546 170.545109,249.943684 170.417983,250.297822" id="Fill-15" fill="#E32313" mask="url(#mask-6)"></path>
            <path d="M154.099489,269.69096 C154.281098,269.577454 154.476328,269.468489 154.657937,269.354983 C154.476328,269.468489 154.281098,269.577454 154.099489,269.69096" id="Fill-16" fill="#E32313" mask="url(#mask-6)"></path>
            <path d="M169.371914,252.887115 C169.4945,252.610161 169.621626,252.346828 169.735132,252.078954 C169.621626,252.346828 169.48996,252.610161 169.371914,252.887115" id="Fill-17" fill="#E32313" mask="url(#mask-6)"></path>
            <path d="M150.284333,271.837126 C150.61123,271.669138 150.929046,271.501149 151.246862,271.333161 C150.929046,271.501149 150.61123,271.669138 150.284333,271.837126" id="Fill-18" fill="#E32313" mask="url(#mask-6)"></path>
            <path d="M163.10458,262.35758 C163.236247,262.216833 163.354293,262.067006 163.48142,261.921718 C163.354293,262.067006 163.236247,262.216833 163.10458,262.35758" id="Fill-19" fill="#E32313" mask="url(#mask-6)"></path>
            <path d="M135.054132,209.399885 L147.172006,209.399885 L147.172006,194.326322 L138.141489,194.326322 L138.141489,187.039253 L147.172006,187.039253 L147.172006,174.449195 L155.262695,174.449195 L155.262695,187.039253 L164.293213,187.039253 L164.293213,194.326322 L155.262695,194.326322 L155.262695,209.399885 L167.380569,209.399885 L167.380569,216.682414 L155.262695,216.682414 L155.262695,224.90931 C154.395511,223.756092 153.110626,222.947931 151.589649,222.843506 L151.512466,222.825345 L150.831431,222.825345 L150.736086,222.843506 C149.260511,222.975172 148.016489,223.774253 147.172006,224.90023 L147.172006,216.682414 L135.054132,216.682414 L135.054132,209.399885 Z M162.840339,233.272414 C162.023098,236.577701 161.219477,241.254138 161.219477,241.254138 L151.20827,241.254138 L141.206144,241.254138 C141.206144,241.254138 140.397983,236.577701 139.589822,233.272414 C139.317408,232.173678 139.004132,231.02954 138.681776,230.107874 C138.831603,230.007989 139.903098,229.962586 140.084707,229.962586 C140.665856,229.962586 141.12442,230.471092 141.315109,231.179368 C141.315109,231.179368 141.464937,232.00569 141.660167,231.701494 C141.664707,231.683333 141.673787,231.665172 141.687408,231.647011 C141.909879,231.152126 142.3185,230.816149 142.772523,230.816149 C143.480799,230.816149 144.048328,231.62431 144.048328,232.605 C144.048328,233.608391 143.480799,234.416552 142.772523,234.416552 C142.590914,234.416552 142.432006,234.362069 142.286718,234.275805 C142.209534,234.566379 142.159592,234.893276 142.191374,235.197471 C142.241316,235.796782 142.11419,238.026034 144.080109,237.671897 C144.89281,237.467586 145.101661,236.809253 145.101661,236.809253 C145.101661,236.809253 145.351374,236.268966 145.805397,236.763851 C146.095971,237.068046 146.872351,237.971552 147.930224,237.562931 C148.983557,237.163391 150.000569,235.597011 150.045971,234.593621 C150.045971,234.593621 150.345626,232.223621 148.198098,233.671954 C148.198098,233.681034 148.189017,233.690115 148.175397,233.699195 C148.161776,233.708276 148.152695,233.708276 148.148155,233.708276 C147.834879,233.898966 147.489822,234.007931 147.126603,234.007931 C146.07781,234.007931 145.224247,233.163448 145.224247,232.101034 C145.224247,231.056782 146.07781,230.194138 147.126603,230.194138 C147.44442,230.194138 147.739534,230.284943 148.025569,230.43477 C148.025569,230.43477 149.43758,231.242931 149.81896,230.416609 C150.045971,229.921724 149.732695,229.317874 149.523845,228.800287 C149.460282,228.714023 149.42396,228.614138 149.387638,228.500632 C149.378557,228.46431 149.360397,228.409828 149.351316,228.387126 C149.342236,228.359885 149.337695,228.332644 149.328615,228.305402 C149.328615,228.25092 149.310454,228.200977 149.310454,228.137414 C149.310454,228.073851 149.305914,228.014828 149.305914,227.942184 C149.305914,226.888851 150.159477,226.035287 151.19919,226.035287 L151.20827,226.035287 L151.226431,226.035287 C152.270684,226.035287 153.128787,226.888851 153.128787,227.942184 C153.128787,228.014828 153.115167,228.073851 153.101546,228.137414 C153.115167,228.200977 153.101546,228.25092 153.097006,228.305402 C153.074305,228.332644 153.074305,228.359885 153.074305,228.387126 C153.065224,228.409828 153.047063,228.46431 153.042523,228.500632 C153.019822,228.614138 152.965339,228.714023 152.924477,228.800287 C152.674764,229.317874 152.38419,229.921724 152.59304,230.416609 C152.9835,231.242931 154.413672,230.43477 154.413672,230.43477 C154.672466,230.284943 154.985741,230.194138 155.299017,230.194138 C156.352351,230.194138 157.205914,231.056782 157.205914,232.101034 C157.205914,233.163448 156.352351,234.007931 155.299017,234.007931 C154.922178,234.007931 154.57258,233.898966 154.277466,233.708276 C154.259305,233.708276 154.259305,233.708276 154.250224,233.699195 C154.250224,233.690115 154.232063,233.681034 154.232063,233.671954 C152.079994,232.223621 152.38419,234.593621 152.38419,234.593621 C152.420511,235.597011 153.432983,237.163391 154.490856,237.562931 C155.566891,237.971552 156.33419,237.068046 156.620224,236.763851 C157.087868,236.268966 157.32396,236.809253 157.32396,236.809253 C157.32396,236.809253 157.53281,237.467586 158.331891,237.671897 C160.306891,238.026034 160.179764,235.796782 160.238787,235.197471 C160.275109,234.893276 160.211546,234.566379 160.138902,234.275805 C159.984534,234.362069 159.825626,234.416552 159.648557,234.416552 C158.944822,234.416552 158.372753,233.608391 158.372753,232.605 C158.372753,231.62431 158.944822,230.816149 159.648557,230.816149 C160.120741,230.816149 160.511201,231.152126 160.733672,231.647011 C160.751833,231.665172 160.769994,231.683333 160.779075,231.701494 C160.965224,232.00569 161.110511,231.179368 161.110511,231.179368 L161.124132,231.179368 C161.28304,230.471092 161.768845,229.962586 162.331833,229.962586 C162.508902,229.962586 163.603098,230.007989 163.748385,230.107874 C163.421489,231.02954 163.117293,232.173678 162.840339,233.272414 L162.840339,233.272414 Z M138.182351,248.277874 C138.454764,247.124655 138.881546,245.626379 139.55804,244.46408 L162.86758,244.46408 C163.557695,245.626379 163.970856,247.124655 164.24781,248.277874 C165.146776,247.714885 166.195569,246.466322 167.344247,246.466322 C168.429362,246.466322 169.96396,246.784138 171.330569,247.301724 C171.235224,247.674023 171.121718,248.055402 171.012753,248.436782 C172.14781,244.532184 172.361201,241.276839 172.388443,239.478908 C172.388443,238.52092 172.324879,238.044195 172.315799,237.871667 L172.315799,169.391379 L130.282351,169.391379 L130.282351,247.61954 C131.757925,246.865862 133.555856,246.466322 135.090454,246.466322 C136.225511,246.466322 137.278845,247.714885 138.182351,248.277874 L138.182351,248.277874 Z" id="Fill-20" fill="#E32313" mask="url(#mask-6)"></path>
            <path d="M168.292247,255.085948 C168.442075,254.808994 168.582822,254.53658 168.723569,254.250546 C168.582822,254.53658 168.442075,254.808994 168.292247,255.085948" id="Fill-21" fill="#E32313" mask="url(#mask-6)"></path>
            <path d="M157.606816,267.305523 C157.833828,267.137534 158.042678,266.969546 158.260609,266.792477 C158.042678,266.969546 157.829287,267.137534 157.606816,267.305523" id="Fill-22" fill="#E32313" mask="url(#mask-6)"></path>
            <path d="M160.342305,265.053569 C160.532994,264.88558 160.732764,264.717592 160.918914,264.540523 C160.732764,264.717592 160.532994,264.88558 160.342305,265.053569" id="Fill-23" fill="#E32313" mask="url(#mask-6)"></path>
            <path d="M165.013293,260.096546 C165.185822,259.874075 165.358351,259.651603 165.521799,259.433672 C165.358351,259.651603 165.185822,259.874075 165.013293,260.096546" id="Fill-24" fill="#E32313" mask="url(#mask-6)"></path>
            <path d="M166.919736,257.427345 C167.01508,257.277517 167.105885,257.12769 167.20123,256.982402 C167.105885,257.12769 167.01508,257.277517 166.919736,257.427345" id="Fill-25" fill="#E32313" mask="url(#mask-6)"></path>
            <path d="M146.437851,273.645954 C140.576414,275.952391 137.815954,276.174862 130.279172,278.454057 L130.279172,169.393195 L172.317161,169.393195 L172.317161,237.873483 C172.326241,238.041471 172.385264,238.522736 172.385264,239.480724 C172.317161,244.888138 170.72354,263.375954 146.437851,273.645954 M84.9722184,239.480724 C84.9722184,238.531816 85.0221609,238.050552 85.0221609,238.050552 L85.0221609,237.955207 L85.0221609,169.393195 L127.06469,169.393195 L127.06469,278.454057 C119.532448,276.174862 116.767448,275.94331 110.887851,273.627793 C86.6248621,263.375954 85.0221609,244.888138 84.9722184,239.480724 M175.527103,237.714575 L175.531644,166.192333 L81.8167586,166.192333 L81.8167586,237.819 C81.784977,238.068713 81.7441149,238.636241 81.7441149,239.480724 C81.6760115,245.482908 83.9188851,265.804977 109.657448,276.597103 C116.535897,279.30308 119.223713,279.294 128.272391,282.177046 L128.65831,282.281471 L129.094172,282.177046 C129.094172,282.177046 140.821586,279.30308 147.659172,276.606184 C173.424977,265.804977 175.65423,245.482908 175.595207,239.480724 C175.595207,238.395609 175.531644,237.759977 175.527103,237.714575" id="Fill-26" fill="#B3A06E" mask="url(#mask-6)"></path>
            <path d="M151.208724,241.252776 L161.219931,241.252776 C161.219931,241.252776 162.023552,236.580879 162.840793,233.271052 C163.117747,232.172316 163.421943,231.028178 163.748839,230.106511 C163.603552,230.006626 162.509356,229.965764 162.332287,229.965764 C161.769299,229.965764 161.283494,230.46973 161.124586,231.178006 L161.110966,231.178006 C161.110966,231.178006 160.965678,232.004328 160.774989,231.700132 C160.765908,231.686511 160.752287,231.668351 160.734126,231.65019 C160.511655,231.150764 160.116655,230.814787 159.649011,230.814787 C158.945276,230.814787 158.373207,231.622948 158.373207,232.608178 C158.373207,233.607029 158.945276,234.41519 159.649011,234.41519 C159.82154,234.41519 159.984989,234.360707 160.139356,234.274443 C160.20746,234.565017 160.275563,234.896454 160.239241,235.196109 C160.180218,235.79996 160.307345,238.024672 158.332345,237.670534 C157.533264,237.466224 157.324414,236.807891 157.324414,236.807891 C157.324414,236.807891 157.083782,236.267603 156.620678,236.767029 C156.334644,237.066684 155.562805,237.97019 154.49131,237.566109 C153.433437,237.166569 152.420966,235.595649 152.384644,234.592259 C152.384644,234.592259 152.075908,232.226799 154.232517,233.670592 C154.232517,233.679672 154.246138,233.688753 154.246138,233.697833 C154.259759,233.706914 154.259759,233.706914 154.27792,233.706914 C154.573034,233.902144 154.922632,234.006569 155.299471,234.006569 C156.352805,234.006569 157.206368,233.166626 157.206368,232.099672 C157.206368,231.05542 156.352805,230.192776 155.299471,230.192776 C154.986195,230.192776 154.67292,230.28358 154.414126,230.433408 C154.414126,230.433408 152.983954,231.241569 152.593494,230.415247 C152.384644,229.920362 152.675218,229.316511 152.924931,228.803466 C152.965793,228.712661 153.015736,228.617316 153.042977,228.49927 C153.047517,228.467489 153.065678,228.413006 153.074759,228.385764 C153.074759,228.358523 153.074759,228.331282 153.09746,228.30404 C153.102,228.254098 153.11108,228.199615 153.102,228.136052 C153.11108,228.077029 153.129241,228.013466 153.129241,227.940822 C153.129241,226.887489 152.271138,226.033925 151.222345,226.033925 L151.208724,226.033925 L151.199644,226.033925 C150.159931,226.033925 149.306368,226.887489 149.306368,227.940822 C149.306368,228.013466 149.310908,228.077029 149.310908,228.136052 C149.310908,228.199615 149.324529,228.254098 149.324529,228.30404 C149.338149,228.331282 149.34269,228.358523 149.35177,228.385764 C149.360851,228.413006 149.379011,228.467489 149.388092,228.49927 C149.424414,228.617316 149.460736,228.712661 149.524299,228.803466 C149.733149,229.316511 150.046425,229.920362 149.819414,230.415247 C149.438034,231.241569 148.026023,230.433408 148.026023,230.433408 C147.739989,230.28358 147.440333,230.192776 147.127057,230.192776 C146.078264,230.192776 145.224701,231.05542 145.224701,232.099672 C145.224701,233.166626 146.078264,234.006569 147.127057,234.006569 C147.490276,234.006569 147.835333,233.902144 148.148609,233.706914 C148.153149,233.706914 148.16223,233.706914 148.175851,233.697833 C148.189471,233.688753 148.198552,233.679672 148.198552,233.670592 C150.34608,232.226799 150.046425,234.592259 150.046425,234.592259 C149.996483,235.595649 148.984011,237.166569 147.930678,237.566109 C146.868264,237.97019 146.096425,237.066684 145.805851,236.767029 C145.347287,236.267603 145.102115,236.807891 145.102115,236.807891 C145.102115,236.807891 144.893264,237.466224 144.080563,237.670534 C142.114644,238.024672 142.24177,235.79996 142.191828,235.196109 C142.160046,234.896454 142.209989,234.565017 142.287172,234.274443 C142.43246,234.360707 142.591368,234.41519 142.772977,234.41519 C143.481253,234.41519 144.048782,233.607029 144.048782,232.608178 C144.048782,231.622948 143.481253,230.814787 142.772977,230.814787 C142.318954,230.814787 141.910333,231.150764 141.687862,231.65019 C141.674241,231.668351 141.660621,231.686511 141.660621,231.700132 C141.465391,232.004328 141.315563,231.178006 141.315563,231.178006 C141.124874,230.46973 140.66631,229.965764 140.085161,229.965764 C139.903552,229.965764 138.827517,230.006626 138.68223,230.106511 C139.004586,231.028178 139.317862,232.172316 139.590276,233.271052 C140.398437,236.580879 141.206598,241.252776 141.206598,241.252776 L151.208724,241.252776 Z" id="Fill-27" fill="#B3A06E" mask="url(#mask-6)"></path>
            <path d="M171.329207,247.300362 C169.962598,246.787316 168.428,246.46496 167.342885,246.46496 C166.198747,246.46496 165.149954,247.718063 164.246448,248.276511 C163.969494,247.123293 163.556333,245.625017 162.866218,244.462718 L139.556678,244.462718 C138.880184,245.625017 138.453402,247.123293 138.180989,248.276511 C137.277483,247.718063 136.22869,246.46496 135.093632,246.46496 C133.554494,246.46496 131.756563,246.8645 130.280989,247.618178 L130.280989,278.450879 C137.81323,276.171684 140.57823,275.953753 146.439667,273.647316 C163.447368,266.455592 169.313345,255.236684 171.329207,247.300362" id="Fill-28" fill="#13654C" mask="url(#mask-6)"></path>
            <polygon id="Fill-29" fill="#1D1D1B" mask="url(#mask-6)" points="400.489138 168.462448 391.871782 168.462448 367.032184 121.602736 367.032184 168.462448 360.521494 168.462448 360.521494 116.077276 371.322701 116.077276 393.978448 158.859862 393.978448 116.077276 400.489138 116.077276"></polygon>
            <path d="M438.815034,144.433736 C438.792333,140.96046 437.916069,138.277184 436.195322,136.379368 C434.470034,134.477011 431.850322,133.528103 428.327103,133.528103 C424.790264,133.528103 421.970782,134.572356 419.868655,136.660862 C417.766529,138.749368 416.581529,141.337299 416.295494,144.433736 L438.815034,144.433736 Z M445.25308,149.500632 L416.295494,149.500632 C416.295494,151.916034 416.658713,154.018161 417.385149,155.816092 C418.111586,157.609483 419.114977,159.080517 420.377161,160.229195 C421.598483,161.355172 423.046816,162.199655 424.722161,162.762644 C426.402046,163.325632 428.24992,163.607126 430.265782,163.607126 C432.939977,163.607126 435.632333,163.071379 438.342851,162.008966 C441.048828,160.942011 442.978425,159.888678 444.127103,158.858046 L444.476701,158.858046 L444.476701,166.072471 C442.251989,167.007759 439.977333,167.793218 437.652736,168.428851 C435.332678,169.059943 432.890034,169.377759 430.333885,169.377759 C423.814115,169.377759 418.724517,167.611609 415.069632,164.083851 C411.405667,160.551552 409.580494,155.539138 409.580494,149.042069 C409.580494,142.617644 411.333023,137.514425 414.83808,133.741494 C418.343138,129.959483 422.960552,128.075287 428.685782,128.075287 C433.98423,128.075287 438.070437,129.623506 440.944402,132.715402 C443.818368,135.816379 445.25308,140.211322 445.25308,145.913851 L445.25308,149.500632 Z" id="Fill-30" fill="#1D1D1B" mask="url(#mask-6)"></path>
            <path d="M511.347931,168.462448 L504.732816,168.462448 L504.732816,146.088195 C504.732816,144.39923 504.651092,142.769287 504.501264,141.198368 C504.351437,139.622908 504.02454,138.369805 503.534195,137.434517 C502.993908,136.422046 502.222069,135.659287 501.214138,135.146241 C500.201667,134.628655 498.748793,134.369862 496.850977,134.369862 C494.994023,134.369862 493.141609,134.832966 491.289195,135.759172 C489.436782,136.685379 487.584368,137.865839 485.727414,139.296011 C485.800057,139.836299 485.863621,140.462851 485.904483,141.180207 C485.954425,141.893023 485.977126,142.605839 485.977126,143.305034 L485.977126,168.462448 L479.362011,168.462448 L479.362011,146.088195 C479.362011,144.349287 479.289368,142.705724 479.135,141.143885 C478.980632,139.586586 478.662816,138.333483 478.163391,137.398195 C477.627644,136.390264 476.851264,135.632046 475.847874,135.12808 C474.839943,134.624115 473.387069,134.369862 471.484713,134.369862 C469.677701,134.369862 467.866149,134.814805 466.045517,135.70923 C464.229425,136.599115 462.417874,137.738713 460.610862,139.123483 L460.610862,168.462448 L454.000287,168.462448 L454.000287,129.166759 L460.610862,129.166759 L460.610862,133.525379 C462.672126,131.813713 464.733391,130.478885 466.790115,129.516356 C468.837759,128.553828 471.026149,128.072563 473.350747,128.072563 C476.020402,128.072563 478.290517,128.635552 480.156552,129.761529 C482.022586,130.887506 483.411897,132.449345 484.329023,134.442506 C486.998678,132.190552 489.436782,130.565149 491.643333,129.570839 C493.845345,128.571989 496.201724,128.072563 498.712471,128.072563 C503.03023,128.072563 506.212931,129.380149 508.260575,131.995322 C510.317299,134.610494 511.347931,138.265379 511.347931,142.955437 L511.347931,168.462448 Z" id="Fill-31" fill="#1D1D1B" mask="url(#mask-6)"></path>
            <polygon id="Fill-32" fill="#1D1D1B" mask="url(#mask-6)" points="550.356678 168.462448 518.629552 168.462448 518.629552 163.572621 541.535011 134.687678 519.115356 134.687678 519.115356 129.166759 549.761908 129.166759 549.761908 133.879517 526.752023 162.868885 550.356678 162.868885"></polygon>
            <path d="M583.565736,144.433736 C583.547575,140.96046 582.67131,138.277184 580.950563,136.379368 C579.220736,134.477011 576.605563,133.528103 573.082345,133.528103 C569.545506,133.528103 566.716943,134.572356 564.623897,136.660862 C562.52177,138.749368 561.33677,141.337299 561.050736,144.433736 L583.565736,144.433736 Z M590.003782,149.500632 L561.050736,149.500632 C561.050736,151.916034 561.413954,154.018161 562.140391,155.816092 C562.866828,157.609483 563.861138,159.080517 565.127862,160.229195 C566.353724,161.355172 567.797517,162.199655 569.472862,162.762644 C571.152747,163.325632 573.005161,163.607126 575.016483,163.607126 C577.695218,163.607126 580.383034,163.071379 583.093552,162.008966 C585.799529,160.942011 587.733667,159.888678 588.877805,158.858046 L589.231943,158.858046 L589.231943,166.072471 C587.00723,167.007759 584.728034,167.793218 582.403437,168.428851 C580.078839,169.059943 577.640736,169.377759 575.089126,169.377759 C568.569356,169.377759 563.479759,167.611609 559.820333,164.083851 C556.165448,160.551552 554.331195,155.539138 554.331195,149.042069 C554.331195,142.617644 556.083724,137.514425 559.588782,133.741494 C563.098379,129.959483 567.711253,128.075287 573.441023,128.075287 C578.734931,128.075287 582.821138,129.623506 585.695103,132.715402 C588.569069,135.816379 590.003782,140.211322 590.003782,145.913851 L590.003782,149.500632 Z" id="Fill-33" fill="#1D1D1B" mask="url(#mask-6)"></path>
            <path d="M619.080776,168.110126 C617.841293,168.441563 616.483764,168.709437 615.01727,168.918287 C613.555316,169.131678 612.24319,169.236103 611.099052,169.236103 C607.080948,169.236103 604.038994,168.160069 601.950489,165.99892 C599.866523,163.84231 598.81773,160.382655 598.81773,155.624494 L598.81773,134.721276 L594.350144,134.721276 L594.350144,129.164034 L598.81773,129.164034 L598.81773,117.872483 L605.432845,117.872483 L605.432845,129.164034 L619.080776,129.164034 L619.080776,134.721276 L605.432845,134.721276 L605.432845,152.632483 C605.432845,154.693747 605.478247,156.305529 605.573592,157.467828 C605.664397,158.630126 605.991293,159.715241 606.558822,160.723172 C607.071868,161.663 607.784684,162.344034 608.68819,162.779897 C609.591695,163.215759 610.967385,163.43369 612.819799,163.43369 C613.900374,163.43369 615.026351,163.274782 616.19773,162.956966 C617.369109,162.639149 618.213592,162.375816 618.735718,162.162425 L619.080776,162.162425 L619.080776,168.110126 Z" id="Fill-34" fill="#1D1D1B" mask="url(#mask-6)"></path>
            <path d="M625.634598,168.461994 L632.249713,168.461994 L632.249713,129.166305 L625.634598,129.166305 L625.634598,168.461994 Z M625.207816,122.587511 L632.667414,122.587511 L632.667414,115.727224 L625.207816,115.727224 L625.207816,122.587511 Z" id="Fill-35" fill="#1D1D1B" mask="url(#mask-6)"></path>
            <path d="M695.626328,147.880678 L686.450523,122.160276 L677.224776,147.880678 L695.626328,147.880678 Z M710.336672,168.46154 L702.908856,168.46154 L697.773856,153.860161 L675.113569,153.860161 L669.983109,168.46154 L662.904891,168.46154 L681.978397,116.076368 L691.263167,116.076368 L710.336672,168.46154 Z" id="Fill-36" fill="#1D1D1B" mask="url(#mask-6)"></path>
            <path d="M741.179362,158.788126 L741.179362,136.236805 C739.395052,135.437724 737.801431,134.888356 736.3985,134.579621 C734.991029,134.279966 733.456431,134.125598 731.790167,134.125598 C728.080799,134.125598 725.197753,135.415023 723.131948,137.993874 C721.066144,140.577264 720.040052,144.232149 720.040052,148.972149 C720.040052,153.639506 720.839132,157.185425 722.432753,159.614448 C724.030914,162.043471 726.582523,163.255713 730.105741,163.255713 C731.976316,163.255713 733.874132,162.842552 735.794649,162.007149 C737.719707,161.171747 739.522178,160.100253 741.179362,158.788126 L741.179362,158.788126 Z M747.794477,168.463356 L741.179362,168.463356 L741.179362,164.345368 C739.281546,165.988931 737.302006,167.264736 735.236201,168.181862 C733.170397,169.098989 730.927523,169.553011 728.516661,169.553011 C723.826603,169.553011 720.099075,167.746 717.343155,164.136517 C714.596316,160.522494 713.211546,155.514621 713.211546,149.112897 C713.211546,145.780368 713.68827,142.815598 714.637178,140.214046 C715.586086,137.607954 716.870971,135.392322 718.487293,133.562609 C720.085454,131.778299 721.946948,130.42077 724.062695,129.480943 C726.192063,128.541115 728.384994,128.073471 730.66419,128.073471 C732.729994,128.073471 734.555167,128.291402 736.153328,128.722724 C737.746948,129.158586 739.422293,129.83508 741.179362,130.747667 L741.179362,113.721805 L747.794477,113.721805 L747.794477,168.463356 Z" id="Fill-37" fill="#1D1D1B" mask="url(#mask-6)"></path>
            <path d="M785.46431,109.497121 L775.861724,122.654707 L770.617759,122.654707 L776.915057,109.497121 L785.46431,109.497121 Z M785.818448,148.833672 C785.818448,143.739534 784.815057,139.957523 782.821897,137.487638 C780.828736,135.013213 778.059195,133.77373 774.522356,133.77373 C770.931034,133.77373 768.147874,135.013213 766.168333,137.487638 C764.184253,139.957523 763.189943,143.739534 763.189943,148.833672 C763.189943,153.755282 764.188793,157.491891 766.186494,160.03442 C768.170575,162.581489 770.958276,163.852753 774.522356,163.852753 C778.041034,163.852753 780.801494,162.590569 782.803736,160.070741 C784.805977,157.550914 785.818448,153.805224 785.818448,148.833672 L785.818448,148.833672 Z M792.637874,148.833672 C792.637874,155.235397 790.998851,160.288672 787.716264,163.9935 C784.424598,167.698328 780.038736,169.555282 774.522356,169.555282 C768.960575,169.555282 764.547471,167.698328 761.273966,163.9935 C758.00046,160.288672 756.370517,155.235397 756.370517,148.833672 C756.370517,142.427408 758.00046,137.369592 761.273966,133.651144 C764.547471,129.932695 768.960575,128.075741 774.522356,128.075741 C780.038736,128.075741 784.424598,129.932695 787.716264,133.651144 C790.998851,137.369592 792.637874,142.427408 792.637874,148.833672 L792.637874,148.833672 Z" id="Fill-38" fill="#1D1D1B" mask="url(#mask-6)"></path>
            <polygon id="Fill-39" fill="#1D1D1B" mask="url(#mask-6)" points="800.574195 148.725615 822.521667 148.725615 822.521667 142.360213 800.574195 142.360213"></polygon>
            <path d="M387.451414,198.798902 L377.848828,211.951948 L372.604862,211.951948 L378.902161,198.798902 L387.451414,198.798902 Z M386.643253,233.731431 C386.616011,230.267236 385.744287,227.57942 384.02354,225.672523 C382.298253,223.774707 379.67854,222.825799 376.159862,222.825799 C372.613943,222.825799 369.79446,223.870052 367.696874,225.954017 C365.599287,228.047063 364.405207,230.639534 364.123713,233.731431 L386.643253,233.731431 Z M393.081299,238.798328 L364.123713,238.798328 C364.123713,241.21827 364.486931,243.320397 365.217908,245.109247 C365.944345,246.911718 366.938655,248.382753 368.205379,249.526891 C369.426701,250.652868 370.875034,251.501891 372.550379,252.060339 C374.225724,252.627868 376.078138,252.904822 378.094,252.904822 C380.768195,252.904822 383.460552,252.373615 386.166529,251.306661 C388.877046,250.235167 390.806644,249.190914 391.955322,248.160282 L392.30492,248.160282 L392.30492,255.370167 C390.080207,256.309994 387.805552,257.090914 385.480954,257.726546 C383.160897,258.357638 380.718253,258.675454 378.162103,258.675454 C371.642333,258.675454 366.552736,256.913845 362.89331,253.381546 C359.233885,249.853787 357.404172,244.836833 357.404172,238.344305 C357.404172,231.915339 359.161241,226.816661 362.666299,223.03919 C366.171356,219.261718 370.78877,217.372983 376.50946,217.372983 C381.807908,217.372983 385.898655,218.925741 388.772621,222.017638 C391.642046,225.114075 393.081299,229.513557 393.081299,235.216086 L393.081299,238.798328 Z" id="Fill-40" fill="#1D1D1B" mask="url(#mask-6)"></path>
            <path d="M430.457379,246.431362 C430.457379,250.022684 428.972724,252.964753 426.007954,255.262109 C423.034103,257.559466 418.984218,258.712684 413.849218,258.712684 C410.938931,258.712684 408.273816,258.367626 405.844793,257.677511 C403.41577,256.982856 401.381747,256.229178 399.742724,255.407397 L399.742724,247.984121 L400.092322,247.984121 C402.180828,249.5505 404.500885,250.803603 407.061575,251.72527 C409.617724,252.656017 412.064908,253.119121 414.412207,253.119121 C417.317954,253.119121 419.592609,252.646937 421.236172,251.707109 C422.875195,250.776362 423.701517,249.296247 423.701517,247.275845 C423.701517,245.732167 423.256575,244.560787 422.362149,243.761707 C421.472264,242.962626 419.765138,242.281592 417.227149,241.723144 C416.287322,241.509753 415.06146,241.26004 413.549563,240.978546 C412.037667,240.701592 410.657437,240.392856 409.417954,240.06596 C405.967379,239.148833 403.524736,237.814006 402.080943,236.038776 C400.637149,234.263546 399.915253,232.093316 399.915253,229.509925 C399.915253,227.889063 400.25123,226.363546 400.918644,224.937914 C401.590598,223.507741 402.603069,222.231937 403.965138,221.10596 C405.277264,219.998144 406.948069,219.12642 408.977552,218.481707 C411.002494,217.832454 413.272609,217.514638 415.783356,217.514638 C418.130655,217.514638 420.505195,217.796132 422.911517,218.372741 C425.313299,218.949351 427.311,219.653086 428.904621,220.465787 L428.904621,227.544006 L428.555023,227.544006 C426.866057,226.299983 424.813874,225.246649 422.398471,224.393086 C419.983069,223.534983 417.613069,223.108201 415.293011,223.108201 C412.873069,223.108201 410.834506,223.571305 409.172782,224.502052 C407.501977,225.423718 406.671115,226.799408 406.671115,228.633661 C406.671115,230.249983 407.17508,231.471305 408.183011,232.288546 C409.172782,233.110328 410.766402,233.777741 412.968414,234.290787 C414.189736,234.576822 415.556345,234.858316 417.068241,235.144351 C418.584678,235.416764 419.842322,235.684638 420.854793,235.91619 C423.923989,236.615385 426.289448,237.827626 427.955713,239.539293 C429.621977,241.269121 430.457379,243.575557 430.457379,246.431362" id="Fill-41" fill="#1D1D1B" mask="url(#mask-6)"></path>
            <polygon id="Fill-42" fill="#1D1D1B" mask="url(#mask-6)" points="504.923052 205.374063 485.849546 257.763776 476.560236 257.763776 457.49581 205.374063 464.950868 205.374063 481.38196 251.466477 497.813052 205.374063"></polygon>
            <path d="M535.011155,198.798902 L525.408569,211.951948 L520.164603,211.951948 L526.461902,198.798902 L535.011155,198.798902 Z M532.627534,248.087638 L532.627534,237.145684 C530.602592,237.26373 528.228052,237.440799 525.494833,237.672351 C522.766155,237.908443 520.600466,238.24442 519.006845,238.689362 C517.109029,239.229649 515.574431,240.074132 514.393971,241.20919 C513.222592,242.344247 512.636902,243.915167 512.636902,245.908328 C512.636902,248.160282 513.322477,249.853787 514.675466,250.988845 C516.042075,252.123902 518.11696,252.691431 520.904661,252.691431 C523.224718,252.691431 525.354086,252.246489 527.270063,251.342983 C529.195121,250.439477 530.974891,249.358902 532.627534,248.087638 L532.627534,248.087638 Z M539.197247,257.762868 L532.627534,257.762868 L532.627534,253.576776 C532.032764,253.976316 531.242764,254.525684 530.248454,255.24758 C529.245063,255.964937 528.282534,256.532466 527.342707,256.950167 C526.239431,257.490454 524.972707,257.939937 523.547075,258.303155 C522.116902,258.670914 520.432477,258.857063 518.5165,258.857063 C514.97058,258.857063 511.974029,257.685684 509.508684,255.333845 C507.043339,252.995626 505.808397,249.994534 505.808397,246.362351 C505.808397,243.37942 506.448569,240.977638 507.733454,239.134305 C509.009259,237.290971 510.829891,235.842638 513.204431,234.789305 C515.592592,233.731431 518.462017,233.014075 521.826328,232.641776 C525.177017,232.269477 528.77742,231.987983 532.627534,231.801833 L532.627534,230.780282 C532.627534,229.272925 532.359661,228.028902 531.828454,227.048213 C531.306328,226.062983 530.543569,225.291144 529.558339,224.723615 C528.627592,224.192408 527.501615,223.82919 526.189489,223.63396 C524.868282,223.44781 523.501672,223.357006 522.06242,223.357006 C520.337132,223.357006 518.393914,223.579477 516.264546,224.04258 C514.126098,224.501144 511.919546,225.159477 509.649431,226.026661 L509.295293,226.026661 L509.295293,219.307121 C510.589259,218.957523 512.450753,218.567063 514.888856,218.144822 C517.32696,217.727121 519.733282,217.51373 522.098741,217.51373 C524.868282,217.51373 527.279144,217.745282 529.335868,218.194764 C531.383511,218.657868 533.158741,219.438787 534.666098,220.537523 C536.137132,221.618098 537.263109,223.011948 538.044029,224.723615 C538.815868,226.435282 539.197247,228.564649 539.197247,231.089017 L539.197247,257.762868 Z" id="Fill-43" fill="#1D1D1B" mask="url(#mask-6)"></path>
            <path d="M607.158132,257.76423 L600.543017,257.76423 L600.543017,235.380897 C600.543017,233.696471 600.461293,232.066529 600.311466,230.495609 C600.161638,228.92469 599.834741,227.667046 599.344397,226.727218 C598.804109,225.723828 598.03227,224.961069 597.024339,224.448023 C596.011868,223.925897 594.558994,223.667103 592.661178,223.667103 C590.804224,223.667103 588.95181,224.139287 587.099397,225.060954 C585.246983,225.991701 583.394569,227.16308 581.537615,228.597793 C581.610259,229.13808 581.673822,229.760092 581.714684,230.477448 C581.760086,231.194805 581.787328,231.907621 581.787328,232.606816 L581.787328,257.76423 L575.172213,257.76423 L575.172213,235.380897 C575.172213,233.651069 575.099569,232.002966 574.940661,230.441126 C574.790833,228.883828 574.473017,227.630724 573.973592,226.699977 C573.433305,225.692046 572.661466,224.938368 571.662615,224.429862 C570.650144,223.925897 569.19727,223.667103 567.299454,223.667103 C565.487902,223.667103 563.680891,224.121126 561.860259,225.006471 C560.044167,225.900897 558.228075,227.035954 556.425603,228.420724 L556.425603,257.76423 L549.810489,257.76423 L549.810489,218.464 L556.425603,218.464 L556.425603,222.827161 C558.482328,221.115494 560.539052,219.776126 562.600316,218.818138 C564.64796,217.851069 566.836351,217.374345 569.160948,217.374345 C571.830603,217.374345 574.100718,217.941874 575.971293,219.067851 C577.832787,220.193828 579.217557,221.742046 580.139224,223.739747 C582.808879,221.487793 585.246983,219.862391 587.453534,218.872621 C589.655546,217.86923 592.011925,217.374345 594.522672,217.374345 C598.840431,217.374345 602.023132,218.686471 604.070776,221.301644 C606.1275,223.907736 607.158132,227.562621 607.158132,232.252678 L607.158132,257.76423 Z" id="Fill-44" fill="#1D1D1B" mask="url(#mask-6)"></path>
            <path d="M650.627201,257.76423 L644.012086,257.76423 L644.012086,235.380897 C644.012086,233.582966 643.907661,231.88946 643.69427,230.300379 C643.480879,228.72492 643.0995,227.480897 642.531971,226.595552 C641.946282,225.610322 641.101799,224.874805 640.003063,224.39354 C638.895247,223.907736 637.469615,223.667103 635.712546,223.667103 C633.900994,223.667103 632.012259,224.121126 630.046339,225.006471 C628.075879,225.900897 626.187144,227.035954 624.380132,228.420724 L624.380132,257.76423 L617.765017,257.76423 L617.765017,203.022678 L624.380132,203.022678 L624.380132,222.827161 C626.445937,221.115494 628.584385,219.776126 630.781856,218.818138 C632.988408,217.851069 635.249443,217.374345 637.57404,217.374345 C641.823695,217.374345 645.056339,218.650149 647.285592,221.210839 C649.510305,223.766989 650.627201,227.444575 650.627201,232.252678 L650.627201,257.76423 Z" id="Fill-45" fill="#1D1D1B" mask="url(#mask-6)"></path>
            <path d="M661.152816,257.763776 L667.767931,257.763776 L667.767931,218.463546 L661.152816,218.463546 L661.152816,257.763776 Z M660.726034,211.884753 L668.185632,211.884753 L668.185632,205.029006 L660.726034,205.029006 L660.726034,211.884753 Z" id="Fill-46" fill="#1D1D1B" mask="url(#mask-6)"></path>
            <polygon id="Fill-47" fill="#1D1D1B" mask="url(#mask-6)" points="713.019948 218.462638 697.110983 257.762868 690.468626 257.762868 674.668626 218.462638 681.85127 218.462638 694.014546 249.740282 706.087017 218.462638"></polygon>
            <path d="M743.515764,248.089454 L743.515764,237.1475 C741.504443,237.261006 739.125362,237.438075 736.396684,237.669626 C733.654385,237.910259 731.493236,238.246236 729.904155,238.691178 C727.997259,239.231466 726.462661,240.071408 725.291282,241.206466 C724.124443,242.341523 723.538753,243.912443 723.538753,245.910144 C723.538753,248.162098 724.210707,249.855603 725.577316,250.990661 C726.934845,252.125718 729.00973,252.693247 731.801971,252.693247 C734.126569,252.693247 736.242316,252.248305 738.167374,251.344799 C740.092431,250.441293 741.876741,249.356178 743.515764,248.089454 L743.515764,248.089454 Z M750.094557,257.764684 L743.515764,257.764684 L743.515764,253.578592 C742.930075,253.978132 742.140075,254.5275 741.141224,255.244856 C740.146914,255.962213 739.179845,256.529741 738.240017,256.947443 C737.141282,257.48773 735.870017,257.941753 734.435305,258.304971 C733.009672,258.66819 731.329787,258.854339 729.40927,258.854339 C725.867891,258.854339 722.862259,257.68296 720.396914,255.335661 C717.940649,252.992902 716.710247,249.996351 716.710247,246.359626 C716.710247,243.381236 717.345879,240.979454 718.626224,239.13158 C719.902029,237.288247 721.727201,235.844454 724.097201,234.78658 C726.489902,233.733247 729.363868,233.015891 732.714557,232.643592 C736.065247,232.271293 739.665649,231.985259 743.515764,231.799109 L743.515764,230.777557 C743.515764,229.270201 743.247891,228.030718 742.725764,227.045489 C742.194557,226.060259 741.440879,225.29296 740.455649,224.725431 C739.515822,224.189684 738.389845,223.826466 737.077718,223.631236 C735.765592,223.445086 734.389902,223.358822 732.96427,223.358822 C731.225362,223.358822 729.291224,223.581293 727.152776,224.039856 C725.018868,224.50296 722.816856,225.156753 720.537661,226.028477 L720.192603,226.028477 L720.192603,219.304397 C721.477489,218.959339 723.343523,218.568879 725.781626,218.142098 C728.22881,217.728937 730.630592,217.515546 733.000592,217.515546 C735.765592,217.515546 738.176454,217.742557 740.224098,218.19658 C742.285362,218.659684 744.056052,219.436063 745.554328,220.539339 C747.034443,221.619914 748.16042,223.013764 748.932259,224.725431 C749.704098,226.432557 750.094557,228.561925 750.094557,231.090833 L750.094557,257.764684 Z" id="Fill-48" fill="#1D1D1B" mask="url(#mask-6)"></path>
            <path d="M781.11477,257.409638 C779.875287,257.736534 778.517759,258.013489 777.051264,258.217799 C775.58931,258.43119 774.277184,258.535615 773.133046,258.535615 C769.114943,258.535615 766.072989,257.45504 763.984483,255.298431 C761.900517,253.146362 760.851724,249.686707 760.851724,244.924006 L760.851724,224.020787 L756.384138,224.020787 L756.384138,218.463546 L760.851724,218.463546 L760.851724,207.176534 L767.466839,207.176534 L767.466839,218.463546 L781.11477,218.463546 L781.11477,224.020787 L767.466839,224.020787 L767.466839,241.927454 C767.466839,243.993259 767.512241,245.60504 767.607586,246.767339 C767.698391,247.929638 768.025287,249.010213 768.592816,250.022684 C769.105862,250.962511 769.818678,251.643546 770.722184,252.079408 C771.62569,252.51527 773.001379,252.728661 774.853793,252.728661 C775.934368,252.728661 777.060345,252.578833 778.231724,252.256477 C779.403103,251.938661 780.247586,251.670787 780.769713,251.466477 L781.11477,251.466477 L781.11477,257.409638 Z" id="Fill-49" fill="#1D1D1B" mask="url(#mask-6)"></path>
            <path d="M812.718856,248.089454 L812.718856,237.1475 C810.698454,237.261006 808.319374,237.438075 805.590695,237.669626 C802.857477,237.910259 800.696328,238.246236 799.098167,238.691178 C797.200351,239.231466 795.665753,240.071408 794.485293,241.206466 C793.318454,242.341523 792.732764,243.912443 792.732764,245.910144 C792.732764,248.162098 793.413799,249.855603 794.771328,250.990661 C796.137937,252.125718 798.212822,252.693247 800.995983,252.693247 C803.32058,252.693247 805.445408,252.248305 807.361385,251.344799 C809.286443,250.441293 811.070753,249.356178 812.718856,248.089454 L812.718856,248.089454 Z M819.288569,257.764684 L812.718856,257.764684 L812.718856,253.578592 C812.124086,253.978132 811.334086,254.5275 810.344316,255.244856 C809.340925,255.962213 808.373856,256.529741 807.434029,256.947443 C806.335293,257.48773 805.064029,257.941753 803.638397,258.304971 C802.212764,258.66819 800.523799,258.854339 798.612362,258.854339 C795.061902,258.854339 792.065351,257.68296 789.600006,255.335661 C787.134661,252.992902 785.904259,249.996351 785.904259,246.359626 C785.904259,243.381236 786.539891,240.979454 787.829316,239.13158 C789.105121,237.288247 790.921213,235.844454 793.300293,234.78658 C795.683914,233.733247 798.557879,233.015891 801.917649,232.643592 C805.268339,232.271293 808.868741,231.985259 812.718856,231.799109 L812.718856,230.777557 C812.718856,229.270201 812.450983,228.030718 811.919776,227.045489 C811.397649,226.060259 810.634891,225.29296 809.649661,224.725431 C808.718914,224.189684 807.592937,223.826466 806.28081,223.631236 C804.959603,223.445086 803.592994,223.358822 802.158282,223.358822 C800.428454,223.358822 798.485236,223.581293 796.355868,224.039856 C794.22196,224.50296 792.010868,225.156753 789.740753,226.028477 L789.386615,226.028477 L789.386615,219.304397 C790.68058,218.959339 792.546615,218.568879 794.984718,218.142098 C797.422822,217.728937 799.824603,217.515546 802.194603,217.515546 C804.959603,217.515546 807.370466,217.742557 809.42719,218.19658 C811.479374,218.659684 813.250063,219.436063 814.75742,220.539339 C816.228454,221.619914 817.354431,223.013764 818.135351,224.725431 C818.90719,226.432557 819.288569,228.561925 819.288569,231.090833 L819.288569,257.764684 Z" id="Fill-50" fill="#1D1D1B" mask="url(#mask-6)"></path>
            <polygon id="Fill-51" fill="#1D1D1B" mask="url(#mask-6)" points="829.931322 257.763776 836.546437 257.763776 836.546437 203.022224 829.931322 203.022224"></polygon>
        </g>
    </g>
</svg>